# Blender v2.75 (sub 0) OBJ File: ''
# www.blender.org
v 0.725343 -1.404832 0.182885
v 0.060532 0.005591 -0.004399
v 0.520036 -0.330937 0.187800
v 1.510390 0.290445 0.110971
v 0.358588 0.493910 0.191844
v 0.144260 1.563890 0.197443
v -0.473697 0.595380 0.250700
v -1.485098 0.655642 0.322799
v -0.826626 -0.166755 0.283030
v -1.125970 -1.179129 0.313802
v -0.212465 -0.739251 0.244156
v 0.091576 0.009152 0.431577
v 0.725343 -1.404832 0.182885
v 0.060532 0.005591 -0.004399
v 0.520036 -0.330937 0.187800
v 1.510390 0.290445 0.110971
v 0.358588 0.493910 0.191844
v 0.144260 1.563890 0.197443
v -0.473697 0.595380 0.250700
v -1.485098 0.655642 0.322799
v -0.826626 -0.166755 0.283030
v -1.125970 -1.179129 0.313802
v -0.212465 -0.739251 0.244156
v 0.091576 0.009152 0.431577
v 0.725343 -1.404832 0.182885
v 0.060532 0.005591 -0.004399
v 0.520036 -0.330937 0.187800
v 1.510390 0.290445 0.110971
v 0.358588 0.493910 0.191844
v 0.144260 1.563890 0.197443
v -0.473697 0.595380 0.250700
v -1.485098 0.655642 0.322799
v -0.826626 -0.166755 0.283030
v -1.125970 -1.179129 0.313802
v -0.212465 -0.739251 0.244156
v 0.091576 0.009152 0.431577
vt 0.375000 0.312500
vt 0.500000 0.688440
vt 0.400000 0.312500
vt 0.425000 0.312500
vt 0.450000 0.312500
vt 0.475000 0.312500
vt 0.500000 0.312500
vt 0.525000 0.312500
vt 0.550000 0.312500
vt 0.575000 0.312500
vt 0.600000 0.312500
vt 0.625000 0.312500
vt 0.626409 0.064409
vt 0.500000 0.156250
vt 0.656250 0.156250
vt 0.626409 0.248091
vt 0.548284 0.304853
vt 0.451716 0.304853
vt 0.373591 0.248091
vt 0.343750 0.156250
vt 0.373591 0.064409
vt 0.451716 0.007647
vt 0.548284 0.007647
vn 0.438500 0.087900 -0.894400
vn 0.140700 -0.339200 -0.930100
vn 0.000700 0.372500 -0.928000
vn 0.437600 0.092300 -0.894400
vn -0.298200 0.138400 -0.944400
vn -0.044800 0.362100 -0.931100
vn -0.273000 -0.172800 -0.946400
vn -0.319100 0.065600 -0.945500
vn 0.095700 -0.346500 -0.933200
vn -0.226800 -0.232500 -0.945800
vn -0.085000 -0.209400 0.974100
vn 0.225000 -0.321700 0.919700
vn -0.174300 0.081400 0.981300
vn -0.129600 -0.151100 0.980000
vn 0.088000 0.370200 0.924800
vn -0.154500 0.152200 0.976200
vn 0.550800 0.106000 0.827900
vn 0.131500 0.380300 0.915500
vn 0.268200 -0.314800 0.910500
vn 0.551700 0.101700 0.827800
s 1
f 1/1/1 2/2/1 3/3/1
f 3/3/2 2/2/2 4/4/2
f 4/4/3 2/2/3 5/5/3
f 5/5/4 2/2/4 6/6/4
f 6/6/5 2/2/5 7/7/5
f 7/7/6 2/2/6 8/8/6
f 8/8/7 2/2/7 9/9/7
f 9/9/8 2/2/8 10/10/8
f 10/10/9 2/2/9 11/11/9
f 11/11/10 2/2/10 1/12/10
f 1/13/11 12/14/11 11/15/11
f 11/15/12 12/14/12 10/16/12
f 10/16/13 12/14/13 9/17/13
f 9/17/14 12/14/14 8/18/14
f 8/18/15 12/14/15 7/19/15
f 7/19/16 12/14/16 6/20/16
f 6/20/17 12/14/17 5/21/17
f 5/21/18 12/14/18 4/22/18
f 4/22/19 12/14/19 3/23/19
f 3/23/20 12/14/20 1/13/20
f 13/1/1 14/2/1 15/3/1
f 15/3/2 14/2/2 16/4/2
f 16/4/3 14/2/3 17/5/3
f 17/5/4 14/2/4 18/6/4
f 18/6/5 14/2/5 19/7/5
f 19/7/6 14/2/6 20/8/6
f 20/8/7 14/2/7 21/9/7
f 21/9/8 14/2/8 22/10/8
f 22/10/9 14/2/9 23/11/9
f 23/11/10 14/2/10 13/12/10
f 13/13/11 24/14/11 23/15/11
f 23/15/12 24/14/12 22/16/12
f 22/16/13 24/14/13 21/17/13
f 21/17/14 24/14/14 20/18/14
f 20/18/15 24/14/15 19/19/15
f 19/19/16 24/14/16 18/20/16
f 18/20/17 24/14/17 17/21/17
f 17/21/18 24/14/18 16/22/18
f 16/22/19 24/14/19 15/23/19
f 15/23/20 24/14/20 13/13/20
f 25/1/1 26/2/1 27/3/1
f 27/3/2 26/2/2 28/4/2
f 28/4/3 26/2/3 29/5/3
f 29/5/4 26/2/4 30/6/4
f 30/6/5 26/2/5 31/7/5
f 31/7/6 26/2/6 32/8/6
f 32/8/7 26/2/7 33/9/7
f 33/9/8 26/2/8 34/10/8
f 34/10/9 26/2/9 35/11/9
f 35/11/10 26/2/10 25/12/10
f 25/13/11 36/14/11 35/15/11
f 35/15/12 36/14/12 34/16/12
f 34/16/13 36/14/13 33/17/13
f 33/17/14 36/14/14 32/18/14
f 32/18/15 36/14/15 31/19/15
f 31/19/16 36/14/16 30/20/16
f 30/20/17 36/14/17 29/21/17
f 29/21/18 36/14/18 28/22/18
f 28/22/19 36/14/19 27/23/19
f 27/23/20 36/14/20 25/13/20
